<svg width="48" height="33" fill="none" xmlns="http://www.w3.org/2000/svg"><path d="M45.803 5.551A5.736 5.736 0 0041.8 1.425C38.251.558 24.056.558 24.056.558s-14.195 0-17.744.95A5.736 5.736 0 002.31 5.633a59.834 59.834 0 00-.95 10.914 59.834 59.834 0 00.95 10.997 5.736 5.736 0 004.002 3.962c3.55.949 17.744.949 17.744.949s14.195 0 17.744-.95a5.735 5.735 0 004.003-4.126c.644-3.574.962-7.2.949-10.832a59.84 59.84 0 00-.95-10.997z" stroke="#F5D79B" stroke-linecap="round" stroke-linejoin="round"/><path d="M19.414 23.295l11.864-6.747-11.864-6.747v13.494z" stroke="#F5D79B" stroke-linecap="round" stroke-linejoin="round"/></svg>